<?xml version="1.0" encoding="utf-8"?>
<!-- Generator: Adobe Illustrator 22.0.1, SVG Export Plug-In . SVG Version: 6.00 Build 0)  -->
<svg version="1.1" id="Capa_1" xmlns="http://www.w3.org/2000/svg" xmlns:xlink="http://www.w3.org/1999/xlink" x="0px" y="0px"
	 viewBox="0 0 456.9 705.3" style="enable-background:new 0 0 456.9 705.3;" xml:space="preserve">
<style type="text/css">
	.st0{fill:#FCFCFC;}
	.st1{fill:#1B181B;}
	.st2{fill:#262426;}
	.st3{fill:#FEFEFE;}
	.st4{fill:#211D20;}
	.st5{fill:#363336;}
	.st6{fill:#312E31;}
	.st7{fill:#2F2C2F;}
	.st8{fill:#363335;}
	.st9{fill:#302C2F;}
	.st10{fill:#3C922C;}
	.st11{fill:#BEBDBE;}
	.st12{fill:#242124;}
	.st13{fill:#252225;}
	.st14{fill:#262326;}
	.st15{fill:#272427;}
	.st16{fill:#2D2A2C;}
	.st17{fill:#2A272A;}
	.st18{fill:#292629;}
	.st19{fill:#2B282B;}
	.st20{fill:#2F2B2E;}
	.st21{fill:#312D30;}
	.st22{fill:#2B292B;}
	.st23{fill:#302D30;}
	.st24{fill:#353134;}
	.st25{fill:#363235;}
	.st26{fill:#5A695B;}
	.st27{fill:#343033;}
	.st28{fill:#536F55;}
	.st29{fill:#526654;}
	.st30{fill:#363436;}
	.st31{fill:#546656;}
	.st32{fill:#566E58;}
	.st33{fill:#4E704F;}
	.st34{fill:#282628;}
	.st35{fill:#040403;}
	.st36{fill:#292528;}
	.st37{fill:#2C292C;}
	.st38{fill:#343134;}
	.st39{fill:#1F1C1F;}
	.st40{fill:#211E21;}
	.st41{fill:#050505;}
	.st42{fill:#2A282A;}
	.st43{fill:#353235;}
	.st44{fill:#312F31;}
	.st45{fill:#2D292C;}
	.st46{fill:#060606;}
	.st47{fill:#070707;}
	.st48{fill:#383538;}
	.st49{fill:#0A0908;}
	.st50{fill:#353234;}
	.st51{fill:#161413;}
	.st52{fill:#221F22;}
	.st53{fill:#232023;}
	.st54{fill:#272527;}
	.st55{fill:#040404;}
	.st56{fill:#201D20;}
	.st57{fill:#262225;}
	.st58{fill:#090808;}
	.st59{fill:#2A2629;}
	.st60{fill:#282528;}
	.st61{fill:#2C2827;}
	.st62{fill:#242023;}
	.st63{fill:#0B0B0B;}
	.st64{fill:#1D1A1D;}
	.st65{fill:#030303;}
	.st66{fill:#2D2A2D;}
	.st67{fill:#2E2B2E;}
	.st68{fill:#030202;}
	.st69{fill:#EFEFEF;}
	.st70{fill:#E7E7E7;}
	.st71{fill:#F0F0F0;}
	.st72{fill:#FBFBFB;}
	.st73{fill:#E4E4E4;}
	.st74{fill:#EEEEEE;}
	.st75{fill:#ECECEC;}
	.st76{fill:#E8E8E8;}
	.st77{fill:#F8F7F7;}
	.st78{fill:#FDFDFD;}
	.st79{fill:#EDECEC;}
	.st80{fill:#FDFDFC;}
	.st81{fill:#F6F5F5;}
	.st82{fill:#F4F3F3;}
	.st83{fill:#F7F6F6;}
</style>
<path class="st0" d="M14.9,699.6c-4.7,0-11.1,1.8-13.5-0.5c-2.3-2.3-0.5-8.8-0.5-13.5c0-225.4,0-450.9-0.1-676.3
	c0-4.2,1-4.8,4.9-4.8c148.5,0.1,296.9,0.1,445.4,0c3.9,0,4.9,0.6,4.9,4.8c-0.1,228.4-0.1,456.9,0,685.3c0,4.2-0.9,5.8-5.1,5.1
	c-1.9-0.3-4-0.1-6-0.1c-0.3-0.8,0.1-1.4,0.7-1.9c3.3-2,6.1-4.3,6.7-8.5c0.4-3.2,0.2-6.3,0.2-9.5c0-211.4,0.1-422.8,0-634.3
	c0-8.3,0.1-16.7,0-25c0-8.2-3.6-12.2-11.8-13.3c-1.7-0.2-3.3-0.1-5-0.1C298.2,7,160.8,7,23.3,7c-5.5,0-10.7,0.5-14.3,5.4
	C6.3,15.9,6.3,20,6.3,24.3c0,87.6,0,175.2,0,262.9c0,130.6,0,261.2,0,391.8c0,2.3-0.1,4.7,0,7c0.2,4.2,1.9,7.7,5.4,10.2
	C13,697,15,697.4,14.9,699.6z"/>
<path class="st1" d="M445.9,698.4c-0.4,0.3-1.2,0.3-1,1.2c-143.3,0-286.7,0-430,0c-7.6-3.2-9.9-9-9.9-17
	C5.1,462.5,5.1,242.4,5.1,22.3c0-3.8-0.2-7.7,2.7-10.7C8.4,11.2,9,11.4,9.3,12c0.7,5-0.9,9.9-0.9,14.9c0.1,85.8,0.1,171.6,0.1,257.4
	c0,1.3,0.1,2.7,0,4c-0.2,3.6,1.6,5.5,5.1,6.2c6.6,1.4,13.2,2,19.8,0.2c2.2-0.6,4.5-1.5,6.9-1c0.9,0.3,1.7,0.7,1.8,1.9
	c-1.2,2.6-3.7,3.2-6,4c-7.2,2.3-14.5,1.8-21.8,0.5c-5.6-1-5.9-0.8-5.9,4.6c0,51.1,0,102.3,0,153.4c0,5.5,0.5,6,6.2,7.1
	c24.9,4.6,50,5.8,75.1,4.8c9.6-0.4,19.2-2.2,28.4-5.5c3.1-1.1,4.4-2.2,1.2-4.9c-1.8-1.5-3.3-3.3-4-5.6c-0.1-0.6-0.1-1.1,0-1.7
	c0.9-1.7,2.4-1.5,3.3-0.5c3.4,4,7.9,6.7,11.3,10.5c0.5,0.5,0.5,1.2,0.3,1.9c-0.4,0.8-1.1,1.3-1.9,1.7c-13.1,5.9-26.8,8.3-41.1,9.4
	c-24.1,1.8-47.8-1-71.5-4.7c-7.1-1.1-7.3-1-7.3,6.3c0,32.8,0,65.6,0,98.4c0,7.6,0.7,8.2,8.4,7.6c20.6-1.6,41.2-1.2,61.8-0.2
	c3.6,0.2,5.1-1.2,5.9-4.5c1.2-4.9,1.5-10.3,5.8-13.9c1.6-0.2,2.1,0.8,2.4,2.1c-1.9,8.7-4,17.3-4.7,26.3c-0.8,9.7,0.3,19.1,1.9,28.6
	c0.4,2.1,1.2,4.2,1,6.4c-0.4,1.2-0.6,2.5-2.3,2c-2.8-2.1-3.2-5.3-4-8.4c-2.2-9.1-2.7-18.5-2.1-27.8c0.3-3.9-1.1-5.2-4.9-5.5
	c-18-1.3-35.9-1.4-53.9,0c-3.2,0.2-6.3,0.1-9.5,0.2c-5.1,0.1-5.6,0.6-5.7,5.9c-0.1,5.5,0,11,0,16.5c0,23.3,0,46.7,0,70
	c0,2.3-0.1,4.7,0.5,7c1.2,5.2,4.4,7.9,9.8,8.5c1.5,0.1,3,0.1,4.5,0.1c43.2,0,86.3,0,129.5,0c1.2,0,2.3-0.1,3.5,0
	c3.2,0.1,4.8-1.5,5.4-4.6c1.3-7.4,2.5-14.8,4.2-22.1c0.7-3.4-0.4-4.9-3.8-5.3c-7.9-0.9-15.9-1.4-23.8-2.9
	c-9.4-1.7-18.6-3.7-27.3-7.7c-2.7-1.2-5.6-2.2-7.1-5.1c-0.2-1,0.2-1.7,1.2-2.2c1.6-0.5,3,0,4.3,0.7c14.3,7.6,30,9.8,45.8,11.2
	c20.4,1.8,40.8,2.8,61.3,2.1c17.8-0.6,35.6-1.7,53-5.8c10.3-2.4,20.1-6.1,28.8-12.1c1.5-1,3-2.1,5-2.1c1,0.3,1.5,1,1.4,2
	c-0.7,2.9-3.2,4.2-5.4,5.6c-12.4,8.2-26.5,11.6-40.8,14c-26.8,4.5-53.8,3.8-80.7,2.9c-4-0.1-5.7,0.9-6.4,4.8
	c-1.3,7.1-2.6,14.1-3.9,21.1c-0.9,4.8-0.5,5.3,4.2,5.4c2,0.1,4,0,6,0c85.6,0,171.3,0,256.9,0c3,0,6-0.2,9,0.2
	C444.4,696.6,445.8,696.7,445.9,698.4z"/>
<path class="st1" d="M9.1,11.7c-0.4,0-0.9-0.1-1.3-0.1c2.9-4.7,7.5-5.5,12.5-5.5c37,0.1,74,0,111,0c102.1,0,204.3,0,306.4,0
	c12.3,0,16.4,4.1,16.4,16.5c0,220.1,0,440.2,0,660.3c0,2.9,0.7,6-1.2,8.7c-1.2,0.1-1.6-0.7-2-1.6c-0.8-2.6-0.5-5.3-0.5-7.9
	c0-27.8,0-55.6,0-83.4c0-7.2-0.3-7.4-7.5-8.3c-2.3-0.3-4.7-0.2-7-0.2c-29.8-0.2-59.6,0-89.4,0c-8.3,0-16.6,1.5-24.9,1
	c-2.9-0.2-4.4,1.1-3.8,4.2c2.3,11,1.8,21.8-1.8,32.5c-0.9,2.6,0.2,4.2,2.5,5.2c4,1.7,7.9,3.6,11.9,5.3c2,0.8,4,1.6,5.4,3.4
	c0.8,1.3,0.2,2.1-1,2.6c-3.1,0.7-5.4-1.4-8-2.3c-1.9-0.6-3.8-1.4-5.5-2.4c-4.8-2.8-9.6-4.8-14.7-0.7c-0.8-0.3-1.2-0.9-1.2-1.8
	c0.1-0.8,0.4-1.6,0.8-2.3c12.2-19.9,9-39.6-1.1-59.1c-0.9-1.7-2.3-3.3-1.7-5.5c0.5-0.9,1.2-1.2,2.2-1c4.3,2.8,6.2,7.3,7.9,11.8
	c1.4,3.7,3.8,5.4,7.6,4.9c17.7-2.1,35.6-0.6,53.4-1.6c17.7-1,35.6-1.2,53.4,0.4c6.3,0.6,12.7-0.1,19,0.5c2.3,0.2,3.4-0.9,3.4-3.2
	c0-1.2,0.1-2.3,0.1-3.5c0-33.3,0-66.6,0-99.9c0-7.3-0.3-7.9-7.6-7.5c-24.3,1.4-48.5,3.8-72.5,7.1c-25.4,3.5-50.7,7.6-75.8,12.9
	c-1.5,0.2-2.8,1.4-4.4,0.7c-4.9-5.8-11.1-6.1-18.4-6c-41.4,0.6-82.9,0.6-124.3,0c-8.4-0.1-17,0.3-25.3-1.7c-1.1-0.6-2.3-1.1-2.3-2.6
	c1.4-2.4,3.6-1.8,5.7-1.8c18.4,0,36.8,0.8,55.3,1.2c2.7,0.1,5.6,0.1,5.6-3.8c0-3.1-1.1-4.8-4.5-4.1c-4.4,1-8.8,1.7-13.2,2.3
	c-12.6,1.7-24.5-0.7-35.7-6.4c-1.9-0.9-4.1-1.8-4.2-4.5c0.4-0.4,0.8-0.7,1.2-1.1c2.4-0.9,4.2,0.6,6.1,1.6
	c14.9,7.3,30.1,6.9,45.7,2.9c3.2-0.8,3.6-2.6,3.2-5.6c-0.9-5.7-3.8-10.6-5.4-16c0.4-2,0.9-3.9,0.2-6c-1.7-9-0.2-18.2-2.7-27.1
	c0-1.1,0.1-2.1,1.1-2.8c2.2-4.2,1.5-9,2.2-13.5c1.9-13,5.3-25.6,10.5-37.5c-3.4,2.1-6,5.9-10.8,5.7c-0.8-0.3-1.3-0.8-1.3-1.7
	c0.7-2,2.5-3.1,4.2-4.1c15.1-9.5,21.8-24.1,24.7-41c2.2-12.5,0.5-24.5-2.7-36.5c0.1-1.1,0.4-2.1,1.6-2.5c3.7,1.5,3.6,5.2,4.9,8.1
	c0.1,2-0.3,4,0.7,5.8c2.9,14.4,1.5,28.6-4,42.1c-3.6,8.9-2.8,17.3,0.1,25.7c4.3,12.5,14.7,17.1,27,12.1c4.6-1.9,9-4.3,13.4-6.6
	c4.7-2.4,9.6-3.6,14.9-3.5c5.5,0.1,11,0.1,16.5,0c9.5-0.3,18-3,24.7-10.2c0.8-0.9,1.6-1.7,2.9-1.8c0.9,0,1.5,0.5,1.8,1.3
	c0.1,3.5-2.2,5.5-4.6,7.3c-6.6,5.1-14.1,8.1-22.6,8.2c-1.2,0-2.3,0.1-3.5,0c-13.8-1.2-26.8,0.8-38.7,8.4c-3.3,2.1-7.3,3.2-11.4,3.5
	c-9.3,0.8-17-2.1-22.8-11.1c-5.4,20.4-10.5,39.8-5.6,60.8c4.5-5.3,6.2-12.2,12.3-15.5c0.9,0,1.5,0.4,1.8,1.2c0.3,2-0.8,3.5-1.9,5
	c-1.5,2-2.9,4.1-4.2,6.2c-4.4,6.7-7.3,13.7-5.1,22.1c0.9,3.3,1.5,6.8,1.3,10.4c0.9-2.3,1.8-4.5,4.7-4.8c0.9,0.2,1.3,0.8,1.5,1.7
	c0,2.1-1.3,3.7-2.2,5.5c-2.2,4.2-1.7,5.5,2.8,6.9c8.2,2.5,16.7,3.5,25.1,3.9c29.9,1.4,58.3-4.5,85-18.1c3.9-2,7.4-4.4,11.3-6.5
	c1.4-0.8,2.9-1.7,4.7-0.9c0.3,0.5,0.5,1,0.5,1.6c-0.4,2.7-2.8,3.6-4.7,4.8c-20.3,12.5-42.5,20-66.1,23c-18.4,2.3-36.9,2.1-55.1-2.3
	c-2.2-0.5-4.8-1.6-5.3,2.2c-0.3,3.1,0.5,5.3,4.2,5.2c21.1-0.3,42.3,1,63.4-0.7c5.5-0.4,10.7-0.2,15.1,3.5c2.6,2.2,5.5,1.9,8.5,1.3
	c24.7-5.1,49.5-9.1,74.4-12.3c24.1-3.2,48.2-6.2,72.6-6.8c5-0.1,5.7-0.7,5.7-6c0-28.3,0-56.6,0-85c0-5.8-0.8-6.3-6.5-5.5
	c-15.9,2.1-31.2,6.9-46.4,11.9c-3.3,1.1-5.3,3.2-6.3,6.5c-0.8,2.5-1.4,5.2-3.9,6.7c-1.7,0.4-2-0.8-2.3-2c-0.2-1.5,0.2-3,0.8-4.4
	c8.4-22.1,6.8-44.1-0.9-66c-0.8-2.2-2-4.3-1.9-6.7c0.2-1.2,0.5-2.3,2.1-2.3c2.2,1,2.8,3.2,3.6,5.2c6.5,16.7,9.5,33.9,6.8,51.9
	c-0.3,2-0.6,3.9-0.8,6.3c7.2-1.6,13.8-4.2,20.6-6.1c9.9-2.8,19.9-5.4,30.3-6.3c4-0.3,5-2.2,5-5.8c-0.1-21,0-41.9-0.1-62.9
	c0-5-0.6-5.3-6-5.6c-15.8-0.8-31.1-3.7-45.2-11.2c-2.7-1.5-5.8-2.7-6.8-6.2c0.2-1.1,0.9-1.5,1.9-1.6c1.9,0,3.5,1,5.1,2
	c13.8,8.3,29.2,10.8,44.9,11.9c5,0.4,5.8-0.5,5.9-5.6c0.1-1.5,0-3,0-4.5c0-72.3,0-144.5,0-216.8c0-1.7,0-3.3,0-5
	c0-2.9-1.1-4.3-4.2-3.8c-23,4-45.8,0.2-68.6-1.7c-14.8-1.2-29.5-2.4-44.3-3.3c-11.6-0.7-22.9,1.1-33.8,4.9c-1-0.1-1.7-0.6-1.9-1.7
	c0.7-3.4,3.6-4.2,6.2-5.1c6.8-2.5,14-3.1,21.1-3.3c18.4-0.5,36.6,1.7,54.8,3.5c19.4,1.9,38.9,2.9,58.4,2.5c0.5,0,1,0,1.5-0.1
	c10.2-0.8,10.9-1.6,10.9-11.7c0-4,0-8,0-12c0.1-5.9-2.3-10-8.2-11.6c-2.7-1.1-5.6-0.7-8.4-0.7c-129,0-258,0-387,0
	c-8.3,0-16.6-0.3-24.4-0.6c0.5,0,1.4,0.2,2.3,0.2c10.9,0.1,21.5,2.3,32,4.5c16.8,3.5,33.4,7.9,49,15.1c3,1.4,6.9,1.9,7.9,6.1
	c0,0.6-0.2,1.1-0.6,1.5c-1.8,0.6-3.3-0.2-4.7-1C84.7,23,59.1,18.2,33.4,14c-4.9-0.8-10-0.9-14.8-2.3c-2.3-0.8-4.5-1.2-6.9-0.4
	C10.9,11.6,10,12,9.1,11.7z"/>
<path class="st2" d="M451.7,690.3c0.4,0.4,0.7,0.9,1.1,1.3c-1,3.7-3.5,5.7-7,6.9c-0.7-0.3-1.4-0.6-2.2-0.9c1-2.1,0.9-3.4-1.6-4.5
	c-7.9-3.4-15.8-7-23.7-10.5c-2.2-1-4.8-1.5-5.8-4.2c0.2-1.2,1.1-1.5,2.1-1.7c7.4,1.5,13.8,5.6,20.7,8.4c3.5,1.4,7.1,2.8,10.5,4.6
	C447.8,690.8,449.8,690.4,451.7,690.3z"/>
<path class="st3" d="M303.8,570.8c10.2,15.4,13.7,32.1,10.2,50.3c-1.2,6.2-4.6,11.3-8.1,16.3c-0.4,1.6-1.4,2.6-3.1,3.1
	c-16.3,13-35.9,16.9-55.8,18.9c-35.5,3.6-71,2.8-106.4-1.7c-12.4-1.6-24.4-4.9-35.3-11.3c-2.9-0.6-4.9-2.6-7.1-4.4
	c-4-4.1-7-8.9-8.2-14.6c-5.5-20.5-5.4-40.8,1.9-60.9c1.8-7.1,7.3-10.6,13-14.1c4.6-2.2,9.6-2.5,14.5-3.1c2.3-0.3,4.6-0.6,6.8-1.2
	c9.9-3,14.9-12.4,12-22.3c-0.8-2.6-2.8-4-5-5.2c-3.7-2.3-7.9-3.3-11.8-5.1c-6.3-3-9.1-7.8-8.9-14.6c0.1-4.9,1.5-9.4,3.4-13.9
	c1.3-2.6,3.4-3.8,6.2-4.2c1.9,0.8,3.8,1.1,5.8,1.2c40.1,0.3,80.2,0.8,120.2,0.9c10,0,20,0.3,29.9-0.9c6.2-0.8,9.8,3.2,12.8,7.7
	c5.9,7.3,4.9,20.1,0.3,26.1c-3.9,5-9.7,4.6-15,5.1c-3.9,0.4-7.9,0.6-11.8,1.2c-3.5,0.6-5.2,2.4-5.1,6.1c0.1,7.1,2.4,13.3,7.7,18.2
	c1.4,1.5,3,2.6,4.7,3.6c3.1,2,6.7,2.5,10.2,3.4c4.6,1.2,9.1,2.5,13,5.4C298,563.9,302.2,566.3,303.8,570.8z"/>
<path class="st3" d="M17.9,10.4c28,3.7,55.7,8.1,82,19c4.4,1.8,8.6,4.2,12.9,6.3c6.7,1.1,10.5,6.3,14.9,10.7c1,1,1.7,2.4,2.8,3.5
	c3.4,4.3,6.6,8.9,10.1,13.2c8.6,12.5,17.8,24.5,27.9,35.8c3.8,4.2,8.4,7.5,12.9,11c4.2,3.4,8.8,5.9,13.9,7.7
	c0.8,0.2,1.6,0.5,2.3,0.8c3.3,1,2.9,2.7,0.6,4.4c-2.8,2-5.4,4.2-7.9,6.6c-2,2-3.7,4.2-4.7,6.8c-3.4,5.4-4.7,11.6-6.2,17.7
	c-0.8,3.1-2.4,3.9-4.8,1.6c-6.1-5.9-13.9-8-21.8-9.9c-3.2-0.8-6.4-0.8-9.7,0c-3.2,0.6-6.4,1-9.4,2.3c-5.2,2.5-8.6,6.5-10.6,12
	c-2.3,6.1-3.5,12.5-5.5,18.7c-2.2,6.7-5.7,11.9-12.9,14c-3.2,0.9-5.8,3.2-8.7,4.8c-3.4,2-6.5,4.4-9.3,7.1
	c-4.4,4.3-8.9,8.4-12.2,13.6c-8.9,12.6-13,26.7-14.1,41.9c-0.7,8.7-2.6,17.1-7.2,24.6c-3,4.7-6.5,8.8-12.4,10
	c-9.3,3.5-18.7,3.9-28.4,1.5c-3.9-0.9-5.2-2.3-5.2-6.5C7.1,200.9,7.1,112.3,7,23.7c0-4.2,0.5-8.2,2-12.1c0.6-0.4,1.2-0.8,1.8-1.2
	C13.2,9.9,15.6,9.9,17.9,10.4z"/>
<path class="st3" d="M115.8,452.8c2.3,4.1,6.3,6.7,9.6,10.3c-11.2,5.4-22.9,7.4-34.8,8.4c-26.7,2.1-53.1-0.7-79.4-5.2
	c-2.2-0.4-4.3-0.5-4.2-4c0.1-54.9,0.1-109.9,0.1-165.3c11.9,2.7,23.6,4.9,34.8-1.4c3.4-3.7,8.3-6.1,10.8-10.7c3.8-3.4,4.1,1,4.8,2.6
	c3.4,7.5,6.5,15.2,9.6,22.9c2.9,7,6.1,14,8.9,21c4.5,11.2,9.3,22.3,14,33.4c9.3,12.1,9.8,26.4,10.1,40.7
	c0.4,15.5,5.1,29.6,13.4,42.5C114.6,449.4,115.1,451.1,115.8,452.8z"/>
<path class="st3" d="M128.7,464.7c11.1,8.2,23.9,10.3,37.3,9.5c6-0.3,12-1.2,17.6-3.1c3.4-1.1,4,0.2,4.1,3.1
	c0.5,8.2,0.6,8.3-7.7,8.2c-17.1-0.2-34.3-0.5-51.4-0.6c-2.9,0-5.8-2.4-8.7-0.2c-0.7,2.1-2.6,3.2-3.8,4.9c-2.2,5.7-4.1,11.5-3.4,17.8
	c0.5,4.5,2.7,7.7,6.7,9.8c4.3,2.3,8.8,3.9,13.3,5.7c6.3,2.6,6.6,7.9,6.1,13.6c-0.6,7.4-4.3,12.3-11.3,14.6c-2.3,0.7-4.7,1.6-7.2,1.5
	c-1.8,0.1-3.6-0.3-5.3,0.7c-3.9,0.5-7.8,0.7-11.2,3c-5.7,2.1-8.7,7.4-12.9,11.3c-3.3,5.2-4.5,11-5.4,16.9c-0.4,2.3-1.2,3.3-3.8,3.1
	c-23.4-2-46.9-1.2-70.3,0.1C7.9,584.8,7,584,7,580.4c0.1-36.3,0.1-72.6,0-108.9c0-3.5,0.8-3.9,4.2-3.3c25,4.4,50.1,7,75.5,5.5
	c13.7-0.8,27.1-2.8,39.7-8.7C127,464.7,127.9,464.8,128.7,464.7z"/>
<path class="st3" d="M103.9,647.6c10.5,7.4,22.7,10,35,11.9c8.7,1.4,17.5,2.1,26.3,2.8c2.8,0.2,3.2,1.2,2.8,3.6
	c-1.8,9.5-3.6,18.9-5.2,28.4c-0.4,2.3-1.2,3.3-3.8,3.3c-46.6-0.1-93.3,0-139.9-0.1c-7.3,0-11.8-4.7-11.8-12
	c-0.1-31.6,0-63.3-0.1-94.9c0-2.6,0.4-3.9,3.4-4c23.4-0.9,46.9-1.9,70.3-0.2c3.3,0.2,4,1.1,3.7,4.4c-0.9,13.2-0.9,26.3,4.5,38.7
	c3.6,3.8,5.2,9,9.3,12.4C99.9,644.1,102.7,645.1,103.9,647.6z"/>
<path class="st3" d="M412.9,678.5c11.6,5.2,23.1,10.5,34.8,15.8c-0.3,2.4-2.9,1.9-4,3.2c-49.8,0-99.6,0.1-149.4,0.1
	c-41.5,0-83,0-124.4,0c-1.8,0-3.6,0-5.7,0c2-10.8,4.1-21.2,5.7-31.7c0.6-3.6,2.6-3.2,4.9-3.1c15.8,1,31.6,1.2,47.4,0.6
	c23-0.9,45.9-2.6,67.3-12.2c5.3-2.4,10.4-5.2,14.4-9.5c0.5-1.6,1.5-2.6,3-3c2.8-4.9,6.3-4.5,10.8-2.1c5.1,2.8,10.8,4.7,16.2,7
	c7.3,1.1,13.4,5.1,20.1,7.8c4.7,1.9,9.4,3.9,14,6.2c3.9,1.5,7.4,3.6,11.4,4.9c9.1,3.9,18.1,8.2,27.3,12.1
	C408.9,675.6,411.3,676.4,412.9,678.5z"/>
<path class="st3" d="M177.9,412.6c3.5,9.4,1.7,19.3,3,29c-2.7,0.6-2.8-1.9-3.6-3.3c-8.6-15.6-20.5-28.4-34.6-39.1
	c-3.8-3.1-7.9-5.8-12.1-8.3c4.1,2.5,8.1,5.1,11.8,8.2c15.7,11.7,28.2,26.1,37.3,43.6c0.5,0.9,0.7,1.9,0.4,2.9
	c2.8,5.6,5,11.4,6.4,17.5c1,4.3-0.6,5.5-4.2,6.4c-18.2,4.6-35.8,4.2-52.4-5.9c-4.6-4.1-9.3-8.2-13.9-12.3
	c-8.7-10.1-12.7-22.3-15.1-35.1c-2-10.9-0.7-22.1-2.9-33.1c-0.8-3.8-2-7.3-3.5-10.8c-1.6-3.8-1-4.8,3.1-5c21-1,40.6,3.1,57.8,16
	c6,5.6,12.2,10.9,16.9,17.7c0.5,0.8,1,1.6,1.5,2.3C175.7,406.2,177.1,409.3,177.9,412.6z"/>
<path class="st4" d="M155.6,384.7c-18.3-13.2-38.9-17.7-61.5-16c5.7,11,6.3,22.9,6.7,34.9c0.5,16.9,5,32.5,15,46.4
	c0.3,0.4,0.2,0.9,0.2,1.4c-0.1,0.5-0.1,1-0.2,1.5c-9.2-10.3-13.4-22.9-15.9-36.1c-1.9-9.7-0.6-19.6-2.3-29.2
	c-1.2-7-2.1-14.1-7.6-19.5c-0.7-0.7-0.8-2.1-1.1-3.2c-0.7-1.3-0.5-2.1,1-2.3c3,2.4,6.3,2.6,10.2,2.5c19.1-0.3,37.4,3.5,53.5,14.5
	c1.8,1.2,4.3,2.3,3.5,5.4C156.6,385.1,156.1,385.1,155.6,384.7z"/>
<path class="st5" d="M90.9,564.6c2.5-5.5,6.4-9.6,12-12c0.6,0.5,1.6,0.1,2.1,1c-5.7,3-9.9,7.4-13.1,12.9
	C91.7,565.8,91.7,565,90.9,564.6z"/>
<path class="st6" d="M97.7,642.7c-4-3.6-7.1-7.9-8.7-13.1c0.3-0.7,0.6-1.4,1-2.1c2.5,5,5.3,9.7,9,14C99.2,642.6,98.8,643,97.7,642.7
	z"/>
<path class="st7" d="M52.9,285.6c-2.5,4.6-6.2,7.9-11,9.9c-0.4-0.4-0.9-0.7-1.3-1.1c4.3-2.8,8-6.1,11.2-10.1
	C52.4,284.5,52.8,284.9,52.9,285.6z"/>
<path class="st8" d="M97.7,642.7c0.4-0.4,0.9-0.8,1.3-1.2c2.1,1.7,4.2,3.3,6.2,5c-0.4,0.4-0.9,0.8-1.3,1.2
	C101.4,646.6,99.4,644.8,97.7,642.7z"/>
<path class="st9" d="M307,638.6c-0.6,1.4-1.6,2.4-3,3c-0.4-0.4-0.8-0.8-1.2-1.1c1-1,2-2,3.1-3.1C306.2,637.9,306.6,638.2,307,638.6z
	"/>
<path class="st3" d="M299,48.7c7.7-5.1,16.6-5.6,25.4-5.8c21.8-0.5,43.5,2.5,65.2,4.3c18.7,1.5,37.5,3.6,56.2,0.6
	c1.3-0.2,2.6-0.6,3.9-0.9c1.8-0.5,2.4,0.2,2.3,2c-0.1,1,0,2,0,3c0,76.5,0,152.9,0.1,229.4c0,4.6-1.2,5.8-5.7,5.6
	c-18.7-1.1-36.7-4.1-52.4-15.2c-3.8-1.3-6-4.4-8.2-7.5c-1-1.5-2.1-2.9-3.4-4.2c-0.3-0.4-0.5-0.9-0.7-1.3c-1.8-6.7-2.6-13.7-3.8-20.5
	c-1.1-6.1-3.2-11.8-5.9-17.4c-3.5-6.8-8.1-12.7-15.2-16.1c-4.2-1.4-6.9-3.9-7.7-8.6c-0.4-2.5-1.9-4.9-3.6-7
	c-11.1-13-25.5-12.5-40.3-9.3c-4.9,1.1-9.4,3.2-14.1,5.1c-1.5,0.6-3,1.7-4.7,0.8c-1-1.8,0.3-3.1,0.9-4.6c4-9.3,7.7-18.7,9.4-28.7
	c1.2-6.8,1-13.5-2.8-19.7c-1.3-2.1-3.3-3.4-5-5.1c-4.1-4.6-3.1-10.5-3.4-15.7c-0.8-15.2-1.3-30.5,2.6-45.4c0.8-3.1,2-6,3.1-8.9
	C293.5,54.1,294.8,50.2,299,48.7z"/>
<path class="st3" d="M443.1,8.5c6.1,1.7,8.9,4.9,9,10.8c0.1,7.2-0.1,14.3,0.1,21.5c0.1,2.8-1.2,3.6-3.6,4.2
	c-10.3,2.6-20.8,2.6-31.3,1.9c-26.2-1.7-52.3-4.1-78.5-6c-10.3-0.7-20.6-0.6-30.8,1.7c-3.7,0.9-7.4,1.9-10.1,4.9
	c-1.6,3.4-4.7,5.9-5.9,9.6c-4.5,11.4-6.4,23.3-6.1,35.6c0.2,8.5-0.5,16.9,0.8,25.4c0.9,5.8-0.7,7.1-6.2,5.8
	c-6.8-1.6-13.7-1.6-20.4-0.7c-11.3,1.6-22.1,0.1-33.1-2.3c-5.8-1.3-11.7-2.1-17.7-1.1c-3.8,0.7-7.6,0.4-11.2-1.3
	c-5.9-1.7-11.4-4.5-16.4-8.1c-13.1-9-22.2-21.8-31.6-34.2c-3.3-4.4-6.7-8.7-9.7-13.2c-3.4-4.3-6.3-9-10-13.1
	c-4.5-6.6-11-11.1-17.4-15.6c-1.7-3.1-5-3.6-7.7-4.9c-20.5-9.4-42.4-14.2-64.5-17.9c-4.9-0.8-9.8-1.5-14.8-2.2
	c0-0.8,0.3-1.3,1.1-1.3c1.7-0.1,3.3,0,5,0c135,0,270,0,405,0C439.1,8.1,441.1,7.8,443.1,8.5z"/>
<path class="st3" d="M292.9,489.6c20.1-3.7,40.2-7.5,60.4-10.5c30.8-4.6,61.7-8.2,92.8-9.8c4.4-0.2,6.1,0.4,6.1,5.6
	c-0.3,36-0.2,72,0,107.9c0,4.1-1.1,4.6-5,4.4c-25.2-1.7-50.5-1.4-75.8-0.9c-18,0.4-35.9,0.8-53.9,1.3c-2.3,0.1-3.5-0.6-4.2-2.9
	c-1.8-5.5-4.3-10.8-8.3-15.2c-4-2-6.4-6-9.9-8.6c-5.1-3.8-11.2-5-17.2-6.4c-2.1-0.5-4-1.4-6-2.2c-1.6-1.3-3.6-2.1-5-3.7
	c-5.3-4.5-7.3-10.6-8-17.2c-0.5-5.5,1.2-6.9,6.6-7.8c5.1-0.9,10.3-0.4,15.3-1.4c11-2.2,15.8-10.1,13.7-21.5
	C293.8,497,291.3,493.6,292.9,489.6z"/>
<path class="st3" d="M383.9,315.6c3.5,9.8,6.7,19.7,8.2,30.1c2.2,16.2-0.5,31.7-6.2,46.8c-1.7,8.4-6.9,15-11.8,21.6
	c-9,12.2-20.5,21.8-32.7,30.5c-1.3,0.9-2.7,2.1-4.5,1.7c-30.2,19.4-63.1,28.6-99,27.2c-10-0.4-19.8-1.8-29.4-4.6
	c-3.8-1.1-4.7-2.6-2.7-5.9c1.5-2.4,2.8-4.8,4.3-7.3c3-6.3,8.9-9.7,14-14.1c19.1-12.8,40.3-21,61.5-29.4c6.3-2.5,12.6-5.1,19-7.6
	c12.7-4.6,24.3-11,34.9-19.5c10.6-8.6,19-19,23.3-26.8c-4.1,8-13.5,17.7-23.5,26.8c-10.3,8.4-21.9,14.4-34.1,19.3
	c-23.1,9.3-46.7,17.4-68.6,29.5c-4.4,2.4-8.6,5-12.7,7.8c-5.4,3.7-9.6,8.8-14.8,12.7c-2,1.5-2.9,3.9-4.4,5.9
	c-5.3-11.5-4.5-23.1,2.5-34.5c2.2-3.5,4.7-6.8,7-10.2c1.7-4.5,5.6-7.2,9.1-10.1c4.8-4,10.2-7.1,15.7-10.2
	c11.1-5.5,23.3-7.8,35.1-11.2c21.8-6.4,43.3-13.3,62.9-25.1c13.1-7.9,24.9-17.3,32.4-31c4.2-5.8,5.6-12.7,7.3-19.4
	c0.3-1.2,0.3-2.9,1.9-3.1c1.5-0.1,2,1.5,2.7,2.6C382.7,310.5,383.2,313.1,383.9,315.6z"/>
<path class="st3" d="M212.8,414.6c-5.7,5.5-9,12.5-13,20c-6.4-23.9-0.8-46,5.4-68.2c0.5,0.3,1.2,0.4,1.3,0.7
	c4.7,10.3,17.6,16.2,30.3,9.2c14.2-7.9,28.5-10.4,44.4-9.6c11.2,0.5,21.2-3.8,27.8-13.7c0.4-2.6,2-4.8,3-7.2
	c8.5-15.5,3-30.7-7.6-43.2c-2.2-2.5-4.8-4.6-7.2-6.9c-1.6-3.7,0.6-3.9,3.4-3.6c8.8,0.8,17.6,0.5,26.1-1.7
	c9.7-2.6,18.9-6.1,25.7-14.1c7.2-7.1,7.2-16,5.7-25c-0.8-4.6-2.2-9.1-4.4-13.2c-4.7-8.7-4.3-17.8-2.7-27.1c0.2-1.1,0.5-2.3,0.4-3.4
	c-0.4-4.1,1.2-5.2,4.9-3.5c7.6,3.6,12.5,9.9,16.4,17.1c5.9,11.4,6,24.3,9.4,36.4c0.2,0.8,0.2,1.7,0.8,2.3l-0.1-0.1
	c2.9,4.7,6.9,8.5,10.1,13c9.8,8.5,21.8,11.7,34.1,14c7.2,1.3,14.5,2.2,21.8,2c2.7-0.1,3.3,0.8,3.3,3.4c-0.1,23.5,0,47-0.1,70.4
	c0,1.5,0.7,3.4-2.1,3.4c-19,0.6-36.7,7-54.6,12.7c-0.6,0.2-1.3,0.3-2.7,0.6c4.7-22.8,2.1-44.7-7.8-65.5c-3-2.6-3.6-7-7.1-10.1
	c-1.8,8.8-3.2,17.4-8.3,24.6c-7.5,13.9-19.4,23.3-32.6,31.2c-25.3,15-53.3,22.6-81.4,30.2c-6.1,1.7-12.1,3.6-17.6,6.7
	c-7.8,3.7-14.8,8.7-20.7,15C215.9,412.6,214.7,414,212.8,414.6z"/>
<path class="st3" d="M386.8,394.6c0.4-0.7,1-1.4,1.1-2.2c1.5-8.8,7.3-12.5,15.5-14.6c13.7-3.6,27.1-8.1,41.2-9.8
	c7.5-0.9,7.5-0.9,7.5,6.6c0,29.3,0,58.6,0.1,88c0,3.4-0.5,4.9-4.5,5.1c-38.1,1.3-75.9,6.4-113.5,12.6c-13.3,2.2-26.5,4.8-39.7,7.3
	c-2.1,0.4-3.7,0.1-5.3-1.6c-3.1-3.4-7.2-4.4-11.8-4.1c-23,1.7-45.9,0.9-68.9,0.9c-3.2,0-3.4-1.3-3.4-3.9c-0.1-8.2-0.2-8,7.6-6.4
	c43.4,8.5,83.9,1,121.7-21.9c1.1-0.7,2.6-1,2.6-2.7c9.4-6.8,18.7-13.7,26.9-22c8.2-8.2,14.8-17.5,20.3-27.5
	C385,396.9,385.7,395.6,386.8,394.6z"/>
<path class="st3" d="M451.7,690.3c-1.2,2.8-3.1,2-5.2,1.1c-10.5-4.6-21.1-9.2-31.7-13.8c-7.6-1.6-14.3-5.7-21.4-8.6
	c-4.3-1.7-8.5-3.6-12.7-5.6c-4-1.3-7.4-3.7-11.4-4.9c-9.1-4-18.1-8.1-27.2-12c-2.3-1-4.6-1.9-6.4-3.7c-6.8-3.1-13.6-6.1-20.4-9.2
	c-1.5-0.7-3.4-0.9-2.4-3.8c5.3-15.1,5.6-22,2-40c11.3-0.4,22.5-0.9,33.8-1.1c29.8-0.5,59.6-1,89.4-0.1c13.7,0.4,13.7,0.3,13.7,13.7
	c0,26.8,0,53.7,0,80.5C452,685.3,451.9,687.8,451.7,690.3z"/>
<path class="st3" d="M205.9,281.7c6.6,20.2,5.3,39.9-4,59c-5,10.2-13.5,17.1-22.9,23c-8,6.6-21.7,6.7-28.8-0.5
	c-3.2-3.2-5.8-6.8-7.8-10.9c-2.7-5.5-5.8-10.8-9.7-15.6c-1.7-2-3.5-3.9-5.5-5.6c-4.1-3.7-9.4-5.6-14.1-8.5c-4-2.5-7.4-5.6-10.1-9.5
	c-8.8-16.9-0.1-31,11.4-41.6c9.4-8.7,20.7-13.9,33.2-16.2c14.3-2.6,28.2-1.4,41,6.2c5.3,3.3,9.3,7.9,13.6,12.2
	C204.3,275.9,205.2,278.8,205.9,281.7z"/>
<path class="st3" d="M157.1,384.5c-0.2-2-2-2.6-3.3-3.5c-16.4-11.3-34.7-15.3-54.3-14.8c-3.6,0.1-8.2,2.1-9.7-3.7
	c-4-5.2-5.6-11.6-8.2-17.5c-2.3-5.1-4.5-10.3-6.5-15.6c-6.4-15.1-12.6-30.3-19.1-45.3c-0.7-1.6-1.4-3.1-0.6-4.8
	c4.2-8.4,4.2-17.6,5.4-26.6c1.7-12.7,5.8-24.4,13.2-34.9c3.4-5.3,8.1-9.5,12.5-13.9c3-2.8,6.4-5,9.7-7.4c2.2-0.6,4.3-4.2,6.4-1.9
	c1.6,1.8-1.3,4.1-2.6,5.9c-9.7,13.3-8.1,27-1.5,40.9c3.4,5.8,8.2,10.1,14.3,13.1c3.8,2.2,8,3.1,12.2,4.2c1.2,0.3,2.9,0.7,2.9,2.3
	c0.1,1.2-1.4,1.7-2.3,2.3c-8.2,5.1-15.5,11.1-20.8,19.5c-6.6,10.4-7.3,20.6-0.9,31.2c4.5,5.9,10.6,9.6,17.1,12.8
	c2.2,1.1,4.2,2.5,6.1,4c1.9,1.8,3.7,3.7,5.6,5.6c4.3,5.5,7.6,11.6,10.8,17.8c6.7,13,17.5,17.1,31.1,12.1c1.9-0.7,3.6-1.6,5.6-1.7
	c4.9-1.5,8.1-5.5,12.9-8.4c-2.2,6.1-4.4,11.6-6.2,17.2c-3.8,11.8-5.7,23.9-6.6,36.2c0,0.4-0.4,0.8-0.7,1.2c-0.1,0.1-0.5-0.2-0.8-0.3
	c-3-1.7-3.1-5.4-5.3-7.6c-0.5-0.7-0.8-1.6-1.4-2.3C168,394.5,161.8,390.2,157.1,384.5z"/>
<path class="st3" d="M307.8,351.6c-7.7,9.8-18.2,13.5-30.3,13.1c-4.2-0.1-8.3-0.1-12.5-0.4c-8.8-0.6-16.1,3.5-23.4,7.4
	c-5.2,2.7-10.3,5.3-16.4,5c-6-0.3-11.3-2.4-14.5-7.5c-6.3-10.1-8.9-21-4.5-32.6c5.5-14.3,7.2-28.9,4.5-44c-0.3-4.5,2.8-2.8,4.6-2.2
	c5.7,1.9,11.5,3.1,17.4,4.1c8.6,1.5,16.4-0.5,24.2-3.6c3.9-1.6,7-4.5,10.1-7.1c3.3-2.7,6.6-2.7,10.2-1.2c7.9,3.3,15.1,7.6,21.1,13.8
	c7.2,6.1,12.8,13.4,15.8,22.4c2.9,8.7,2.7,17.2-1.5,25.5C311.1,346.7,310.9,350.1,307.8,351.6z"/>
<path class="st3" d="M210.9,287.6c-2.4-2.2-2-5.7-4-8c-5.2-6.6-10.5-13.3-17.9-17.8c-4.1-1.5-4.5-4.1-2.8-7.9
	c3.9-8.5,7.7-17.1,9-26.3c1.3-9.5,7-15.5,14.4-20.3c16.5-10.7,33.2-9.4,50-0.8c2.7,2.4,6.2,3.9,8.9,6.4c1.5,1.6,3.2,3.1,4.7,4.8
	c13.5,19.8,13.8,40,0.9,59c-5.3,6.1-11.2,11.6-18.7,15.1c-14.2,5.6-28,3.4-41.7-2.1C212.5,289.2,211.5,288.7,210.9,287.6z"/>
<path class="st10" d="M195.9,397.5c-0.1,1-0.1,2-0.2,3.1c-1,1.9,0.3,4.1-0.8,6c-0.9,15.2,3.3,29.9,5.4,44.7
	c1.2,8.8,2.6,17.7,2.8,26.6c0.1,3.8-1.1,5.1-4.8,4.7c-2.8-0.3-5.6-0.2-8.4-0.3c-1.2-4.8,0.2-9.8-0.8-14.6
	c-0.6-8.3-3.6-16.2-5.5-24.2c-0.6-2.7-0.4-5.3-0.8-7.9c-1.1-1.9,0.2-4.1-0.8-6c0-6,0-12.1,0-18.1c1-2.2-0.3-4.7,0.8-6.9
	c1.5-20.8,7.6-40.1,18.2-58c3.2,2,0.2,5.5,1.7,7.9c2.1,5.8,0.9,11.3-0.9,17c-2.1,6.9-3.5,14.1-5.1,21.2
	C195.8,394.2,197,396,195.9,397.5z"/>
<path class="st11" d="M443.1,8.5c-2.3,0.1-4.6,0.3-7,0.3c-134.6,0-269.2,0-403.8,0c-2.1,0-4.3-0.7-6.3,0.7c-2.7,0.6-5.1-1.3-7.7-1.6
	c3.2,0,6.4,0,9.6,0c136.3,0,272.6,0,408.9,0C438.9,7.8,441.1,7.2,443.1,8.5z"/>
<path class="st12" d="M292.9,489.6c1.6,6.9,4,13.6,2.3,20.9c-1.8,8.1-4.2,10.9-12.2,12.2c-5.4,0.9-10.9,1-16.3,1.7
	c-6.6,0.8-7.8,2.8-6.4,9.4c1.2,5.6,3.4,10.7,7.6,14.7c0.2,1-0.2,1.5-1.3,1.2c-6.6-5.1-8.4-12.5-9-20.2c-0.3-4.4,2.8-6.2,6.5-6.8
	c5.9-0.9,11.9-1.1,17.8-2c7.3-1,9.6-3.6,11.1-10.7c1.3-6.5-0.1-12.5-2.1-18.5C291.6,490.9,292.2,490.3,292.9,489.6z"/>
<path class="st13" d="M386.8,394.6c-5.4,13.7-14.5,24.8-25.1,34.7c-7.5,7-15.1,14.2-24.7,18.4c0-0.4-0.1-0.9-0.1-1.3
	c20.6-14.1,38.3-30.8,49.1-53.8C386.2,393.3,386.5,393.9,386.8,394.6z"/>
<path class="st14" d="M180.2,364.7c-12.6,7.9-30,6.9-37.7-10.1c-2.9-6.4-6.8-12.2-10.7-17.9c-0.3-1.1,0.1-1.5,1.2-1.2
	c4.8,4.8,7.7,10.8,10.7,16.6c7.9,15,17.5,18.5,33.3,12.1c0.6-0.2,1.2-0.4,1.9-0.6C179.4,364,179.8,364.4,180.2,364.7z"/>
<path class="st15" d="M143.2,398.5c15,11,27.2,24.5,35.9,40.9c0.5,0.9,0.6,1.9,1.8,2.1c0.9,1.6,1.2,3.1-0.8,4
	c-9-18.4-22.4-33.1-38.2-45.9C141.7,398.6,142.1,398.1,143.2,398.5z"/>
<path class="st16" d="M210.9,287.6c9.1,3.4,18.2,6.5,28.2,6.3c5.9-0.1,11.4-1.5,16.8-3.3c0.8,0,1.5,0.2,2,1
	c-11.3,6.4-23.2,5.4-35.1,2.5c-3.2-0.8-6.3-2-9.3-3.2c-1.9-0.8-2.7-0.4-2.7,1.7C209.1,290.9,210.1,289.3,210.9,287.6z"/>
<path class="st17" d="M368.9,327.6c4.2-8.3,7-17.1,7.8-28c4.2,4.9,6.4,9.3,8.1,14c-0.3,0.7-0.6,1.3-0.9,2c-1.7-3.1-3.4-6.2-5.5-9.9
	c-1.7,8.7-3.6,16.5-8.3,23.2C369.4,328.8,369,328.3,368.9,327.6z"/>
<path class="st18" d="M335.9,642.7c11.5,4.5,22.8,9.7,34,14.9c0.1,1.9-1,1.5-2.1,1c-11.4-4.7-22.8-9.6-33.9-15
	C334.6,643.3,335.2,643,335.9,642.7z"/>
<path class="st19" d="M212.8,414.6c6.6-8.2,14.5-14.6,24.1-18.9c0.6,0.5,1.5,0.1,1.9,0.9c-9.2,5.2-17.6,11.5-24.8,19.2
	C213.6,415.4,213.2,415,212.8,414.6z"/>
<path class="st20" d="M189.9,261.6c7.5,4.3,13.4,10,16.9,18.1c-0.3,0.7-0.7,1.4-1,2.1c-4-7.9-10.3-13.7-17.3-18.9
	C188.8,262.1,189.2,261.7,189.9,261.6z"/>
<path class="st21" d="M224.2,442.7c-5,4-9.7,8.5-14.2,13.1c-0.4-0.4-0.8-0.8-1.2-1.2c3.6-5.5,8.5-9.6,14-13.1
	C223.6,441.6,224,442,224.2,442.7z"/>
<path class="st7" d="M113,34.4c6,2.1,10.9,6,14.8,10.9c1.1,1.3,2.8,2.2,3.3,4.1c0.3,1.2-0.1,1.6-1.3,1.3
	c-4.6-6.1-10.4-10.9-16.9-14.9C112.9,35.3,112.9,34.9,113,34.4z"/>
<path class="st22" d="M392.9,272.6c-4.6-3.4-8.5-7.3-10.1-13c0.8-0.3,1.6-0.4,2.1,0.6c2.2,4.5,5.9,7.8,9.2,11.4
	C393.7,271.9,393.3,272.2,392.9,272.6z"/>
<path class="st9" d="M295.9,560.6c3.7,2.3,6.7,5.3,9,9c-0.4,0.4-0.8,0.8-1.2,1.3c-3.1-3-6.1-6-9.2-9.1
	C294.7,561.1,295.2,560.7,295.9,560.6z"/>
<path class="st23" d="M291.8,55.6c1.4-3.2,3.1-6,6.1-8c0.4,0.4,0.8,0.8,1.2,1.1c-2,2.8-4,5.5-5.9,8.3
	C292.4,56.8,292,56.3,291.8,55.6z"/>
<path class="st24" d="M174.1,402.2c2.3,2.4,3.4,5.5,4.7,8.4c-0.3,0.6-0.6,1.3-0.9,1.9c-1.7-3-3.4-6-5-9
	C173,402.9,173.4,402.4,174.1,402.2z"/>
<path class="st25" d="M307.8,351.6c1.3-2.3,2.7-4.7,4-7c0.8,0.4,0.4,1.4,1,2c-0.7,2.4-1.9,4.6-3.8,6.3
	C308.6,352.4,308.2,352,307.8,351.6z"/>
<path class="st26" d="M189.1,467.7c1.6,4.8,0.4,9.8,0.8,14.6C188.1,477.5,189.3,472.6,189.1,467.7z"/>
<path class="st27" d="M115.9,485.6c0.8-1.9,1.9-3.4,4-3.9c0.7,0.3,1.5,0.7,2.2,1c-2.1,0.9-3.6,2.6-5,4.3
	C116.4,486.8,116,486.3,115.9,485.6z"/>
<path class="st28" d="M202.8,354.5c-2.1-2.3,0.4-5.6-1.7-7.9c0.6-1.4,1.5-2.2,1.7,0C203,349.3,202.8,351.9,202.8,354.5z"/>
<path class="st29" d="M182.9,404.7c-0.3,2.3,0.8,4.7-0.8,6.9C182.1,409.2,181.2,406.8,182.9,404.7z"/>
<path class="st30" d="M17.9,10.4c-2.3,0-4.7,0-7,0C13.2,8.8,15.6,9.1,17.9,10.4z"/>
<path class="st31" d="M182,429.7c1.6,1.8,0.6,4,0.8,6C181.3,433.8,182,431.7,182,429.7z"/>
<path class="st32" d="M194.9,406.6c0.2-2-0.7-4.2,0.8-6C195.7,402.6,196.4,404.8,194.9,406.6z"/>
<path class="st33" d="M195.9,397.5c0.2-1.6-0.6-3.4,0.8-4.8C196.8,394.4,197.3,396.1,195.9,397.5z"/>
<path class="st34" d="M381,662.6c11.5,4.7,22.8,9.6,33.9,15c-0.8,0-1.5,0.2-2,0.9c-11.3-5-22.7-10-34-15
	C378.9,661.7,379.9,662,381,662.6z"/>
<path class="st35" d="M201.4,587.9c-8.2,5.7-11.5,5.3-14.8-1.8c-2.4,1.7-4.7,3.4-7.2,5.1c-0.8,0.5-1.9,0.9-2.7-0.2
	c-0.9-1.2,0-1.9,0.8-2.3c9.1-4.3,12.6-13.3,17.6-21c0.7-1.1,1-3.6,2.9-2.6c2.2,1.1,0.3,2.9-0.4,4.2c-2.2,3.9-4.7,7.6-6.8,11.6
	c-1.3,2.4-2.2,5.2,0.5,7.2c2.9,2.1,5.1-0.1,6.9-1.9c4.4-4.6,7-10.4,9.9-16c0.6-1.2,1.2-2.4,1.9-3.5c0.6-0.9,1.1-2.4,2.6-1.5
	c1.3,0.9,0.5,2.1,0,3.1c-2,4-4.3,7.9-6.3,11.8c-1.4,2.7-3.9,6.5-0.6,8.3c2.9,1.6,4.7-2.6,6.5-4.9c0.7-0.9,1-2.1,1.6-3.1
	c0.9-1.3,0.9-4.5,3.2-3.3c2,1,0,3.3-0.7,4.8c-1.5,3.3-3.3,6.6-6.5,8.6C206.5,592.5,203.3,592.6,201.4,587.9z"/>
<path class="st36" d="M105,553.6c-0.8-0.1-1.6-0.1-2.1-1c3.5-2.3,7.5-3,11.6-3.2c1.7-0.8,3.7,0.1,5.4-0.7c3-0.7,6.1-1.2,8.9-2.3
	c6-2.2,8.1-7.1,8.9-13.1c0.8-5.6-0.3-10.2-5.8-12.9c0.1-1.6,0.8-1.7,1.9-0.9c4.5,1.7,6,5.1,6.1,9.7c0.2,12.2-3.6,19.3-19.5,21.3
	C115.3,551.3,110,551.8,105,553.6z"/>
<path class="st18" d="M133.8,519.6c-0.8,0-1.5,0.2-1.9,0.9c-4.5-1.5-9-3-13.2-5.4c-5.6-3.2-7.9-8.2-7.2-14.5
	c0.6-5.2,1.3-10.5,4.4-15c0.4,0.5,0.8,0.9,1.2,1.4c-1.6,4.5-3.1,9-3.5,13.8c-0.5,6,2,10.1,7.2,12.9
	C125.1,516,129.9,516.7,133.8,519.6z"/>
<path class="st37" d="M295.9,560.6c-0.5,0.4-0.9,0.8-1.4,1.2c-5.7-3.9-12.4-5-18.8-6.9c-1.7-0.5-3.5-0.9-4.8-2.2
	c-0.1-1.1,0.2-1.8,1.4-1.2C280.1,554.7,289.2,554.5,295.9,560.6z"/>
<path class="st38" d="M272.3,551.4c-0.5,0.4-1,0.8-1.4,1.2c-1.7-0.5-3.2-1.4-4.2-2.9c0.4-0.4,0.9-0.8,1.3-1.2
	C269.4,549.5,270.9,550.5,272.3,551.4z"/>
<path class="st39" d="M291.8,55.6c0.4,0.5,0.8,0.9,1.3,1.4c-8.4,21.4-6.9,43.6-4.9,65.8c0.2,2,1,3.8,2.7,5c0.1,1.1-0.7,1.4-1.6,1.6
	c-10.7-4.7-21.8-4.8-33.2-3.5c-8.6,1-17.2,0.3-25.7-2.1c-5.1-1.4-10.4-1.7-15.8-1.8c-10.4-0.2-18.8,3.6-25,12
	c-1,1.3-1.8,2.9-3.7,3.1c-0.9-0.2-1.7-0.6-1.1-1.8c3-6.8,8.4-11.1,15.3-14.7c-2.1-0.9-3.6-1.4-5.1-2c0-1.9,1.1-1.4,2.1-1
	c7.3,2.5,14.9-0.2,22.3,0.9c2.6,0.4,5.3,0.4,7.9,1.1c11.6,3,23.2,3.6,35.1,2.3c7.7-0.9,15.6-0.7,23.7,2.2c-0.4-7-1-13.4-1.2-19.8
	c-0.4-16.2,0-32.2,6.2-47.5C291.1,56.2,291.5,55.9,291.8,55.6z"/>
<path class="st40" d="M75,217.8c-10.1,14.7-13.6,31.4-15,48.8c-0.2,2.5-0.4,5.2-1.6,7.2c-3.1,5.6-1.4,10.5,0.9,15.8
	c5.8,13.2,11.1,26.6,16.6,39.9c0.6,1.1,0.9,2-0.9,2c-6.3-14.8-12.6-29.7-19-44.5c-0.5-1.2-0.4-4.5-3.1-1.5c-0.4-0.4-0.8-0.8-1.1-1.2
	c6.2-10.2,6.5-21.8,8.1-33.1c1.8-12.7,6-24.4,14-34.7C74.9,216.4,75.4,216.7,75,217.8z"/>
<path class="st40" d="M97.9,242.6c-8.3-14.3-9.5-31.4,4.9-47.7c-2.8,0-4.4,2.3-6.7,2.9c-1.1,0.4-1.4-0.2-1.3-1.1
	c3-2.7,6.6-4.5,10.3-5.8c6-2.1,9.1-6.4,10.8-12c1.7-5.7,3.1-11.5,4.9-17.2c2.1-6.4,5.2-12.2,11.9-14.9c0.6,0.6,0.6,1.4,0.4,2.2
	c-7.6,6.9-9.9,16.2-12.3,25.6c-2,7.9-5.8,14.5-12.3,20c-13.3,11.1-16.5,25.3-10.3,41.3c0.6,1.6,1.3,3.1,1.3,4.8
	C99.6,241.6,99.5,242.7,97.9,242.6z"/>
<path class="st41" d="M70.5,126.8c-4,2.6-8.1,5.1-12.7,6.5c-0.9,0.3-2.2,0.7-2.7-0.4c-0.6-1.4,0.6-2,1.8-2.4
	c1.7-0.6,3.4-1.3,5.1-2.1c5.1-2.5,9.8-5.2,10.1-12c0.1-3.1,1.9-6,4.1-8.3c1.6-1.7,3.8-2.6,5.9-1.3c2.1,1.3,2.2,3.5,1.4,5.8
	c-1.4,3.9-4.1,6.8-7.2,9.3c-2.8,2.2-3.2,4.7-1.2,7.2c2.3,2.8,4.5,0.5,6.4-1c2.8-2.2,4.6-5.2,6.3-8.2c0.6-1.1,1.2-2.2,2.6-1.2
	c1.1,0.8,0.2,1.7-0.2,2.6c-1.4,2.9-3.3,5.4-5.4,7.7C78.8,135.5,74.2,134.8,70.5,126.8z"/>
<path class="st13" d="M132.9,148.4c0-0.6,0-1.2,0-1.8c3-1.4,6.1-2.5,9.5-2.2c3.6-0.6,7.3-0.6,10.9,0c9.2,1.1,17.2,4.9,24.1,11.9
	c2-7.6,3.1-15,7.4-21.2c0.4,0.4,0.8,0.9,1.2,1.3c1,2.5-0.5,4.4-1.2,6.6c-2.1,6.6-4.8,13.1-1.4,20c-0.2,0.8-0.6,1.3-1.3,1.7
	c-1.7,0.2-2.8-0.9-3.7-2.1c-6-8.1-14.2-12.7-23.7-15.3c-1.6-0.7-3.3-0.6-4.9-0.6c-1.2,0-2.5,0-3.7,0c-1.7,0-3.4,0-5.1,0.5
	C138.2,147.7,135.8,149.7,132.9,148.4z"/>
<path class="st34" d="M141,62.6c7.7,10.1,15,20.5,23.2,30.2c4.3,5.1,8.9,10.1,14.5,14c1.2,0.8,2.2,1.9,3.3,2.9c0,0.8-0.2,1.5-1.2,1
	c-8.5-5.2-14.8-12.6-20.9-20.2c-7-8.6-13.8-17.4-19.9-26.7C139.5,62.7,139.9,62.4,141,62.6z"/>
<path class="st42" d="M75,217.8c-0.4-0.4-0.8-0.8-1.1-1.2c3.1-5.1,7.1-9.4,11.8-13.1c1.1-0.3,1.5,0.1,1.3,1.2
	C83,209.1,79,213.4,75,217.8z"/>
<path class="st43" d="M180.7,110.7c0.4-0.3,0.8-0.7,1.2-1c5.1,2.6,10.1,5.2,15.2,7.8c-0.7,0.3-1.4,0.6-2.1,1
	C189.6,117,184.8,114.4,180.7,110.7z"/>
<path class="st23" d="M141,62.6c-0.4,0.4-0.8,0.8-1.2,1.3c-3.4-4.4-6.7-8.8-10.1-13.2c0.4-0.4,0.9-0.9,1.3-1.3
	C134.7,53.4,138,57.9,141,62.6z"/>
<path class="st44" d="M86.9,204.7c-0.4-0.4-0.8-0.8-1.3-1.2c2.6-2.9,5.7-5.1,9.2-6.9c0.4,0.4,0.8,0.8,1.3,1.1
	C93.1,200.1,90,202.4,86.9,204.7z"/>
<path class="st45" d="M153.3,144.5c-3.6,0-7.3,0-10.9,0C146,143.4,149.6,143.3,153.3,144.5z"/>
<path class="st41" d="M43.4,406.6c-4.1,2.6-8.2,5.1-12.8,6.6c-0.9,0.3-2.1,0.8-2.6-0.3c-0.7-1.5,0.6-1.9,1.7-2.4
	c2-0.8,4-1.6,5.9-2.6c4.7-2.3,8.9-4.9,9.2-11.1c0.2-3.5,1.9-6.7,4.6-9.1c1.6-1.4,3.5-2.3,5.4-0.9c1.7,1.3,2.1,3.2,1.4,5.3
	c-1.3,4.2-4.3,7.2-7.4,9.8c-2.8,2.3-3,4.9-1,7.3c2.3,2.7,4.6,0.3,6.4-1.2c2.6-2.1,4.4-5,6-7.9c0.5-1,1.2-2.4,2.6-1.5
	c1.5,0.9,0.2,2.2-0.2,3c-1.6,2.9-3.5,5.7-5.9,8C50.7,415.4,46.3,414.4,43.4,406.6z"/>
<path class="st17" d="M75,331.6c0.3-0.7,0.6-1.3,0.9-2c5.1,10.8,9.6,21.9,13.9,33c-0.3,0.7-0.6,1.4-0.9,2
	C83.8,353.8,79.2,342.8,75,331.6z"/>
<path class="st41" d="M61.2,532.3c-3.8,2.3-7.6,4.8-11.9,6.1c-1.1,0.3-2.7,1.6-3.5-0.2c-0.8-1.9,1.3-1.9,2.3-2.4
	c1.6-0.8,3.4-1.4,5-2.2c4.8-2.4,9.2-4.9,9.5-11.3c0.1-2.9,1.6-5.7,3.7-8c1.7-1.9,3.7-3.8,6.4-1.9c2.5,1.8,1.9,4.4,0.9,6.8
	c-1.4,3.2-3.9,5.8-6.6,8c-2.9,2.3-3.6,5.1-1.3,7.6c2.5,2.6,4.9,0.1,6.8-1.6c2.3-2,3.9-4.5,5.4-7.1c0.6-1,1-3.1,2.7-1.9
	c1.5,1,0.3,2.4-0.4,3.5c-1.7,2.4-3.3,5.1-5.3,7.2C69.2,540.9,64.5,540,61.2,532.3z"/>
<path class="st18" d="M119.9,548.8c-1.6,1.4-3.6,0.7-5.4,0.7C116.2,548.6,118,548.6,119.9,548.8z"/>
<path class="st46" d="M74.6,650.9c-2.9,4.9-6.8,8.3-11.5,10.9c-1.7,0.9-4,1.6-4.8-0.4c-1.6-4-3.3-1.4-5-0.5c-6.1,3.4-8.7,2.2-10-4.8
	c-1.8,1.9-3.3,3.6-4.9,5.2c-0.6,0.7-1.3,1.8-2.4,0.7c-0.8-0.8-0.1-1.6,0.5-2.1c5.7-5.8,10.6-12.5,17.8-16.5c4.1-2.3,8.5-4,13.2-1.9
	c1.7,0.8,3.7,1.3,0.6,3.9c-3.3,2.8-5.6,6.9-8.1,10.6c-0.7,1.1-1.1,2.7-0.1,3.8c1.3,1.3,2.4-0.1,3.4-0.7c2.9-1.7,5.1-4.2,7.5-6.6
	C71.7,651.6,72.2,650,74.6,650.9z"/>
<path class="st47" d="M292.5,681.3c-9.7,5.7-11.4,5.4-13.9-2.3c-1.7,1.8-3.2,3.5-4.8,5.1c-0.5,0.6-1.1,1.3-2.1,0.7
	c-1.2-0.7-0.4-1.4,0.1-2c5.9-6.3,11.2-13.3,19-17.4c3.8-2,7.8-3.1,12-1.5c1.6,0.6,4.5,1.2,0.8,4.1c-3.3,2.5-5.3,6.7-7.8,10.3
	c-0.9,1.2-1.5,2.9-0.2,4.1c1.2,1.1,2.5-0.1,3.6-0.8c3.1-1.9,5.7-4.6,8.1-7.4c0.6-0.7,1.2-1.9,2.3-0.9c1,1,0,1.8-0.6,2.5
	c-2.6,3-5.4,5.9-8.9,7.9C296.5,685.9,293.8,686,292.5,681.3z"/>
<path class="st48" d="M381,662.6c-0.8,0.1-1.6,0.1-2.1,1c-3.9-1.2-7.6-2.9-11.1-4.9c0.8-0.1,1.6-0.1,2.1-1
	C373.8,658.8,377.4,660.5,381,662.6z"/>
<path class="st49" d="M138.4,448.6c-0.4,0.3-0.7,0.7-1.1,1c-1.8,1.2-4.3,4.1-5.8,2.1c-1.8-2.6,2.4-2.5,3.7-3.8
	c2.5-2.5,4.6-5.3,6.4-8.3c1.4-2.3,2.5-4.7,4.1-6.8c0.9-1.3,1.4-4.4,3.5-3.1c2.1,1.3-0.5,3.1-1.2,4.6c-1.5,2.9-3.5,5.7-4.9,8.7
	c-0.9,2-2.7,4.5-0.3,6.4c2.2,1.6,4.1-0.6,5.7-1.8c2.9-2.2,5.6-4.7,8.4-7.1c0.8-0.6,1.6-1.5,2.6-0.6c1,1,0,1.8-0.7,2.4
	c-3.2,2.7-6.2,5.6-9.5,8C144.3,453.7,142.3,453.2,138.4,448.6z"/>
<path class="st50" d="M157.1,384.5c6.6,4.1,11.8,9.5,15.9,16c-0.1,0.7-0.5,1.2-1.2,1.3c-4.8-6.3-10.8-11.4-16.1-17.2
	C156.1,384.7,156.6,384.6,157.1,384.5z"/>
<path class="st20" d="M143.2,398.5c-0.4,0.4-0.9,0.8-1.3,1.2c-5-3.3-10.1-6.6-15.1-9.9c0.3-0.4,0.5-0.9,0.8-1.3
	C133.4,390.6,138.4,394.4,143.2,398.5z"/>
<path class="st51" d="M150.2,422.6c1.3,0,2.2,0.2,2.3,1.2c0,1.1-0.7,1.8-1.8,1.9c-0.9,0.1-1.7-0.3-1.8-1.3
	C148.7,423.1,149.4,422.6,150.2,422.6z"/>
<path class="st27" d="M171.8,401.9c0.4-0.4,0.8-0.9,1.2-1.3c0.7,0.3,1,0.9,1.1,1.7c-0.4,0.5-0.8,0.9-1.2,1.4
	C172.5,403,172.1,402.5,171.8,401.9z"/>
<path class="st41" d="M378.4,139.5c-3.9,2.2-7.5,5-11.9,6.1c-1.2,0.3-3,2-3.8-0.3c-0.6-1.8,1.6-1.7,2.6-2.3c1.8-0.9,3.6-1.6,5.4-2.5
	c4.6-2.2,8.5-4.7,8.8-10.7c0.2-3.4,1.9-6.7,4.6-9.2c1.6-1.5,3.5-2.3,5.4-1.1c2.1,1.3,2.3,3.4,1.5,5.7c-1.4,4.1-4.4,7.1-7.6,9.7
	c-2.7,2.3-2.6,4.8-0.9,6.9c2.2,2.7,4.5,0.6,6.4-1c2.7-2.2,4.6-5.2,6.3-8.3c0.4-0.8,1-2,2.3-1.3c1.2,0.6,0.7,1.7,0.2,2.6
	c-2.1,4-4.6,7.7-8.4,10.4C384.5,147.8,380.9,146.2,378.4,139.5z"/>
<path class="st40" d="M267.7,213.7c-2.7-2-5.4-4-8.1-5.9c0.2-0.8,0.7-1.3,1.5-1.7c7.5-2.3,11.9-8.4,16.5-14
	c10.4-12.5,15.3-27.4,18-43.3c1-5.7-1.7-10.7-2.2-16.1c0.3-0.8,0.7-1.4,1.7-1.1c5.9,7.9,4.3,16.6,2.5,25.3
	c-2.1,10.1-6.1,19.5-10.5,28.7c1,0.4,1.5,1.1,1.5,2.2c-5.9,5.7-11,12.2-17.2,17.5c-2.9,2.4-3.7,4.5-1.9,7.7
	C269,213.6,268.5,214.1,267.7,213.7z"/>
<path class="st52" d="M356.5,204.8c-1.3-0.3-2.5-0.6-4.1-1c0,6.1-0.4,12-1.5,17.8c-0.8,4.5,1.3,8.4,2.8,12.4
	c3.6,9.5,7.6,18.9,6.2,29.3c-0.7,5.2-1.9,10.4-7,13.5c-0.4-0.4-0.7-0.9-0.7-1.5c2.4-6.9,5.3-13.5,4.1-21.1c-1.1-7-3.8-13.4-6.4-19.8
	c-2.3-5.7-2.8-11.4-2-17.5c1-8.1,1.4-16.2-2.3-23.9c-0.4-0.9-0.6-1.9-0.5-2.9c0.3-0.9,0.6-1.6,1.7-1.4c1.7,1.6,2.9,3.7,3.3,5.9
	c0.8,4.7,3.1,7.8,7.7,9.2C357.8,204.6,357.7,205.4,356.5,204.8z"/>
<path class="st53" d="M346.9,188.6c-0.4,0.4-0.7,0.9-1.1,1.3c-1.1,0.1-2-0.3-2.7-1c-13.1-11.9-27.9-10.2-43.1-5.3
	c-4,1.3-7.4,4.5-12,4c-0.3-0.7-0.7-1.3-1-2c11.4-5.6,23.1-10.2,36.1-9C332.4,177.5,341.2,180,346.9,188.6z"/>
<path class="st54" d="M382.9,259.7c-3-2.7-3.3-6.7-3.8-10.2c-1.2-9.9-3.5-19.4-7.4-28.5c-0.5-1.2,0.1-1.5,1.1-1.4
	C380,232,380.6,246.1,382.9,259.7z"/>
<path class="st19" d="M372.9,219.6c-0.4,0.5-0.8,0.9-1.1,1.4c-3.9-6.5-8.6-12.2-15.2-16.2c0.5-0.4,0.9-0.7,1.4-1.1
	C365,207,369.6,212.7,372.9,219.6z"/>
<path class="st7" d="M294.9,131.6c-0.4,0.4-0.8,0.9-1.2,1.3c-2.5-0.3-3.9-1.6-4-4.2c0.4-0.3,0.8-0.6,1.1-1
	C292.9,128.3,294,129.8,294.9,131.6z"/>
<path class="st55" d="M227.5,62c-4,2.6-8.1,5.2-12.7,6.6c-1,0.3-2.4,1-2.8-0.8c-0.3-1.3,1-1.6,1.9-1.9c1.5-0.7,3.1-1.1,4.6-1.8
	c5.3-2.5,10.2-5.2,10.5-12.2c0.2-2.9,1.7-5.7,3.8-7.9c1.7-1.7,3.7-3.3,6.1-1.7c2.2,1.5,2.2,3.8,1.2,6.2c-1.5,3.7-4.2,6.4-7.1,8.9
	c-2.7,2.3-3.2,5-1.2,7.3c2.4,2.8,4.8,0.3,6.8-1.4c2.5-2.2,4.3-5,5.9-8c0.5-0.8,1-2,2.2-1.4c1.6,0.8,0.7,1.9,0.2,2.9
	c-1.6,2.9-3.4,5.7-5.8,8C235,70.8,230.7,70,227.5,62z"/>
<path class="st41" d="M370.2,538.8c-2.4,0.1-4.4-1.3-4.9-3.7c-0.7-3.4-2.1-2.4-4-1.2c-3,2-6.3,3.8-9.8,4.8c-1,0.3-2.4,1.2-3-0.4
	c-0.6-1.5,1-1.9,2-2.2c3.7-1.2,6.9-3.1,10.2-5.1c2.5-1.5,3.8-3.3,4.2-6.2c0.5-3.8,1.7-7.5,4.3-10.4c1.6-1.8,3.5-3.4,6.1-2
	c2.9,1.6,2.2,4.3,1.3,6.6c-1.5,3.6-4.1,6.5-7.2,8.8c-3,2.3-2.8,5-0.8,7.3c2,2.3,4.3,0.4,6.1-1c2.9-2.4,4.9-5.4,6.6-8.7
	c0.3-0.7,0.8-1.7,1.8-1.2c0.5,0.2,1,1,1,1.5C384.2,529.4,374.7,538.8,370.2,538.8z"/>
<path class="st56" d="M238.8,396.6c-0.6-0.3-1.3-0.6-1.9-0.9c8.9-5.4,19.1-7.3,29-10.1c23.1-6.3,45.9-13.4,66.9-25.2
	c14.6-8.2,27.2-18.4,36.1-32.8c0.4,0.4,0.8,0.9,1.1,1.3c-7.7,14.3-20,23.8-33.5,31.8c-22.8,13.5-47.9,21-73.3,27.8
	C255,390.8,246.7,393.1,238.8,396.6z"/>
<path class="st57" d="M224.2,442.7c-0.4-0.4-0.9-0.8-1.3-1.2c10.7-8.3,22.9-13.9,35.3-19.2c15.4-6.6,31-12.9,46.8-18.7
	c0.6,0.6,0.6,1.2,0,1.8c-13.6,5.6-27.1,11.1-40.7,16.7C250.2,427.8,236.8,434.6,224.2,442.7z"/>
<path class="st58" d="M284.3,446.7c-1.9,1.2-3.7,2.5-5.5,3.6c-0.7,0.4-1.6,0.4-2.2-0.5c-0.7-1,0-1.6,0.7-1.9
	c6.2-2.6,8.6-8.4,11.7-13.6c0.8-1.4,1.7-2.8,2.7-4.2c0.8-1.1,1.3-3.4,3.1-2.3c1.8,1.2-0.2,2.6-0.8,3.7c-2,4-5,7.4-6.2,11.8
	c-0.4,1.4-1.1,3.1,0.5,4.1c1.4,0.9,2.9,0.4,4.1-0.6c3.3-2.7,6.7-5.5,10-8.2c0.7-0.6,1.5-1.6,2.5-0.7c1.1,0.9,0.3,1.8-0.5,2.4
	c-3.8,3.2-7.1,7-11.6,9.3C289.2,451.5,286.3,450.8,284.3,446.7z"/>
<path class="st59" d="M338.6,384.5c11-9.8,20.4-20.9,28-33.6c-5.7,14.1-14.8,25.5-26.7,34.8C339.3,385.6,338.8,385.1,338.6,384.5z"
	/>
<path class="st60" d="M338.6,384.5c0.4,0.4,0.9,0.8,1.3,1.2c-10.3,9.1-22.1,15.3-35.1,19.7c0-0.6,0-1.2,0-1.8
	C316.9,398.5,328.3,392.5,338.6,384.5z"/>
<path class="st61" d="M297.9,422.5c-0.1,1.1-0.8,1.7-1.9,1.6c-1-0.1-2-0.7-1.8-1.8c0.1-1,1-1.6,2.1-1.6
	C297.4,420.6,298,421.2,297.9,422.5z"/>
<path class="st62" d="M352.8,275.3c0.1,0.5,0.1,1,0.2,1.5c-3.5,6.1-9.6,8.7-15.5,11.3c-11.9,5.2-24.5,6.2-37.3,4.8
	c-2.4-0.3-3.3,0-2.3,2.5c0.4,0.5,0.3,1-0.1,1.4c-7-5.5-14.2-10.8-22.8-13.6c-2.8-0.9-4.8-0.8-7.1,1.4c-2.9,2.8-6.1,5.6-10.1,7
	c-0.8-0.1-1.6-0.2-2-1c6.5-3.6,11.9-8.7,16.9-14.1c0.9-0.3,1.4,0.3,1.8,0.9c0.4,0.6,0.6,1.3,1.1,1.6c12.1,7.1,24.5,12.6,39.3,10.9
	c13.2-1.5,25.3-5,35.4-14C351.1,275.4,351.9,275.2,352.8,275.3z"/>
<path class="st41" d="M419.6,326.5c-4.2,2.7-8.1,5.1-12.6,6.5c-1.2,0.4-2.5,0.7-2.8-0.8c-0.3-1.1,1-1.5,1.9-1.9
	c1.8-0.8,3.7-1.5,5.5-2.4c5.1-2.4,9.3-5.2,9.7-11.8c0.2-3,1.8-6,4.2-8.3c1.7-1.6,3.6-2.7,5.8-1.3c2.2,1.4,2.1,3.7,1.3,5.8
	c-1.4,3.8-4.2,6.8-7.3,9.3c-2.8,2.3-3.2,4.9-1.1,7.3c2.2,2.7,4.5,0.4,6.4-1.1c2.5-2,4.2-4.7,5.8-7.4c0.6-1,1-3,2.7-2.1
	c2.2,1.2,0.3,2.6-0.4,3.7c-1.5,2.4-3.1,4.8-5,6.8C427.9,335.1,423.3,334.4,419.6,326.5z"/>
<path class="st15" d="M297.8,296.8c0-0.5,0.1-0.9,0.1-1.4c3.4,0.6,5.1,3.6,7,5.8c11,12.7,16.4,26.7,9.1,43.2
	c-0.3,0.7-0.8,1.4-1.2,2.1c-0.8-0.4-0.9-1.2-1-2c7.4-17,1.8-30.9-10-43.4C300.5,299.7,299.2,298.2,297.8,296.8z"/>
<path class="st41" d="M409.5,430.6c-4.1,2.5-8.1,5.1-12.8,6.5c-1.2,0.3-2.4,0.9-2.8-0.8c-0.3-1.2,0.9-1.5,1.8-1.9
	c1.8-0.7,3.7-1.4,5.5-2.3c4.8-2.6,9.5-5,9.8-11.8c0.1-3.2,1.9-6.4,4.4-8.7c1.6-1.4,3.5-2.2,5.5-1.1c2.2,1.3,2.3,3.5,1.5,5.7
	c-1.5,3.8-4.1,6.8-7.2,9.3c-2.7,2.1-3.4,4.7-1.3,7.3c2.5,3,4.8,0.4,6.7-1.3c2.7-2.3,4.5-5.3,6.2-8.3c0.5-0.8,1.1-1.7,2.3-0.9
	c0.9,0.6,0.6,1.4,0.2,2.2c-2.4,4.6-5.3,8.9-9.9,11.6C415.3,438.5,412.4,436.8,409.5,430.6z"/>
<path class="st47" d="M412,627.8c-1.3,1-2.5,2.2-3.8,3.1c-3.4,2.4-6.4,2.8-7.8-2.2c-9.9,5.7-11.7,5.4-13.8-2.6
	c-1.9,2-3.5,3.8-5.1,5.5c-0.6,0.6-1.2,1.3-2,0.4c-0.9-0.9-0.1-1.5,0.4-2.1c5.6-5.9,10.5-12.5,17.7-16.6c3.5-2,7.3-3.2,11.4-2.7
	c1.7,0.2,3.4,1,4,2.6c0.8,2-1.6,1.5-2.3,2.5c-2,3.1-4.2,5.9-6.4,8.9c-1.1,1.5-2.3,3.4-0.9,4.9c1.5,1.6,2.9-0.5,4.3-1.2
	c1-0.5,1.9-1.2,2.9-1.8C411.8,626.2,412.2,626.6,412,627.8z"/>
<path class="st63" d="M412,627.8c-0.4-0.4-0.9-0.9-1.3-1.3c2.1-2.1,3.5-5,6.8-6C415.8,623.1,414.9,626.1,412,627.8z"/>
<path class="st64" d="M260.9,206.6c-0.4,0.4-0.9,0.8-1.3,1.2c-10-4.9-20.3-8.1-31.7-6.3c-12,1.9-21.2,8.2-28.8,17.3
	c-0.9,1.1-1.1,2.3-1.4,3.7c-1.9,10.8-5.2,21.3-10,31.2c-1.8,3.8-2,6.2,2.2,8c-0.4,0.4-0.9,0.8-1.3,1.2c-25.8-14.8-56.3-5.8-73.2,9.5
	c-12.3,11.1-19.6,24-11.4,41c0.4,0.6,0.3,1.1-0.2,1.6c-7.5-9.3-6.8-19.3-1.7-29.3c5.6-11,14.7-18.5,26-24.7
	c-5.8-1.8-11.5-2.1-16.2-5.4c0-1.6,1.1-1.7,2.2-1.9c10.6,4.1,20.9,3,31.6-0.1c10.7-3.1,21.7-2.6,32.4,0.9c2.9,1,5,0.8,6.5-2.4
	c6.2-14,10.4-28.4,10.9-43.7c0.4-13.1-4.8-24.6-10.9-35.8c-1.3-2.4-3.8-4.4-2.8-7.6c0.4-0.4,0.8-0.9,1.2-1.3
	c1.9-0.2,2.7,1.2,3.4,2.5c7.9,12.9,14.5,26.3,13.9,42c-0.1,2.2-0.1,2.2-1.5,5.1c1.7-0.7,2.4-2.3,3.7-3.2c1.5-1,2.8-2.3,4.3-3.4
	c15.9-11.6,34.7-11.6,51.5-3.1C259.6,204,261.2,204.6,260.9,206.6z"/>
<path class="st65" d="M178.1,300.3c2.1,0.8,3.3-0.2,4.7-0.7c1-0.4,2.1-0.5,2.5,0.7c0.4,1.2-0.6,1.7-1.4,2.2
	c-0.3,0.2-0.6,0.4-0.9,0.4c-6.4-0.6-9.1,4.8-13.2,8c-1.5,1.2-3.3,2.2-5.1,3c-6.1,2.4-9.2,0.7-11.3-6.1c-2.5,2.5-4.8,5.2-8,6.6
	c-0.8,0.3-1.7,0.5-2.3-0.3c-0.6-0.8-0.3-1.8,0.4-2.2c8-4.2,11.5-12.7,17.9-18.4c1.6-1.4,3.2-2.8,5.1-4c3.7-2.3,7.7-3.6,11.6-0.7
	C180.7,290.8,180.6,295.1,178.1,300.3z"/>
<path class="st37" d="M103.8,314.9c0.1-0.5,0.2-1.1,0.2-1.6c5.2,6.2,12.2,10,19.2,13.7c1.7,0.9,3.6,1.8,4.7,3.6
	c0.2,1.1-0.2,1.5-1.3,1.2c-5.6-3.9-12-6.4-17.4-10.6C107,319.3,105,317.5,103.8,314.9z"/>
<path class="st66" d="M126.7,331.7c0.4-0.4,0.8-0.8,1.3-1.2c2.2,1.2,3.8,2.9,5.1,5c-0.4,0.4-0.8,0.8-1.2,1.2
	C130.1,335.1,128.4,333.4,126.7,331.7z"/>
<path class="st67" d="M113.8,254.6c-0.6,0.3-1.3,0.6-1.9,0.9c-6.1-2.7-10.9-6.9-14-12.9c0.8-0.4,0.9-1.1,0.9-1.9
	c0.7-0.4,1.3-0.2,1.7,0.4c3.2,4.8,7.6,8.5,12.5,11.5C113.7,253,114.3,253.7,113.8,254.6z"/>
<path class="st55" d="M269.4,326.2c1-0.1,1.4-0.1,1.7-0.1c1.6,0.1,3.7-2.9,4.6-0.4c1,2.9-2.7,3.5-4.3,3.4c-4-0.2-5.9,2.3-8.1,4.7
	c-2.2,2.5-4.9,4.5-8.1,5.7c-6.4,2.4-9.8,0.3-10.6-6.8c-2.8,2.5-4.9,5.5-8.4,7c-1,0.4-1.8,0.9-2.6-0.3c-0.6-0.9-0.1-1.6,0.6-2
	c7.1-4,10.6-11.3,16.1-16.9c2.9-3,5.9-5.7,10-7.2c2.9-1,5.6-1.3,8,0.7c2.4,2.1,2.6,4.9,1.9,7.8C270,323.2,269.8,324.5,269.4,326.2z"
	/>
<path class="st68" d="M234.5,254.9c-8.4,7.4-14.1,6.6-17-2.3c-2.7,2.6-5.3,5.2-8.7,6.7c-1,0.5-2.4,0.9-3.1-0.5
	c-0.6-1.1,0.1-1.9,1.1-2.4c9.6-4.7,14.1-13.8,19.2-22.3c0.8-1.3,1.5-2.6,2.3-3.9c0.6-1,1.2-2.2,2.6-1.6c1.8,0.8,1,2.2,0.3,3.3
	c-2.5,4.3-5.2,8.5-7.6,12.8c-2,3.5-4.6,7.8-0.4,10.7c4.4,3.1,7.3-1.4,9.7-4.3c4.2-5.2,7-11.2,10.1-17.1c0.7-1.3,1.4-2.7,2.1-4
	c0.6-1.1,1.3-2.1,2.7-1.3c1.5,0.8,0.7,1.9,0.2,2.9c-2.4,4.7-5,9.4-7.3,14.2c-1.6,3.3-5.2,7.9-1,10c3.5,1.8,6.1-3.3,8.1-6.5
	c1.1-1.8,1.9-3.9,2.8-5.8c0.5-1,1.3-1.6,2.4-1.1c1.2,0.5,0.9,1.6,0.6,2.6c-1.9,4.8-4.3,9.4-8.4,12.8
	C240.9,261.4,237.1,260.3,234.5,254.9z"/>
<path class="st12" d="M274,277.8c-0.4-0.4-0.8-0.9-1.2-1.3c11.5-16.7,12.1-34.1,3.1-52c-1.2-2.3-2.8-4.5-4.2-6.7
	c-0.4-1.1,0.3-1.5,1.2-1.7c2.1,0.1,3.3,1.6,4.2,3.2c10,17.7,12,35.7,1.7,54.1C277.8,275.3,276.8,277.7,274,277.8z"/>
<path class="st37" d="M273,216.6c-0.4,0.4-0.8,0.9-1.2,1.3c-1.4-1.4-2.7-2.8-4.1-4.1c0.4-0.4,0.8-0.8,1.3-1.2
	C271.6,212.5,273,213.9,273,216.6z"/>
<path class="st3" d="M260.9,206.6c-22.7-13.2-43.3-9.7-62.5,8.8c2.6-20.2-4.9-36.5-15.4-51.8c-4.4-4.5-3.1-9.5-1.4-14.5
	c1.4-4.2,2.9-8.3,4.4-12.4c10.1-17.3,25.9-18.6,43-14.6c11,2.6,21.9,3,33.1,1.9c9.6-1,19.2-0.6,27.8,4.8c1.3,1.4,2.7,2.8,4,4.2
	c4.5,8.2,3.3,16.6,1.2,25.1c-4.7,18.8-13.3,35.2-28.9,47.4C264.4,206.7,263,208,260.9,206.6z"/>
<path class="st3" d="M113.8,254.6c-6-3.6-11.3-7.9-15-13.9c-3.1-7.4-5.8-14.9-4.7-23.2c1.3-10.1,6.5-18.2,14.2-24.4
	c6.3-5.1,9.6-11.7,11.6-19.2c0.6-2.6,1.4-5.1,2-7.7c1.7-7.1,4.8-13.4,11.1-17.7c2.7-0.7,5.3-1.4,8-2.1c1.7-0.7,3.6,0.2,5.3-0.7
	c1.1,0,2.3,0,3.4,0c1.7,0.9,3.6,0,5.3,0.7c11.5,2.5,20,9.3,26.9,18.5c6,10.3,12.1,20.6,14.2,32.6c3,17-1.6,33-7.4,48.7
	c-1.3,3.6-2.3,8-4.9,10.2c-2.9,2.4-6.8-1.2-10.3-1.9c-10.2-2.1-20.3-2.3-30,1C133.2,258.9,123.6,258.8,113.8,254.6z"/>
<path class="st69" d="M81.1,108.9c-0.7,5-2.9,7.9-6.7,9.5C75.8,115,76,110.7,81.1,108.9z"/>
<path class="st45" d="M146.2,145.7c-1.7,1-3.5,0.6-5.3,0.7C142.5,145,144.4,145.7,146.2,145.7z"/>
<path class="st45" d="M154.9,146.4c-1.8,0-3.6,0.3-5.3-0.7C151.4,145.7,153.3,145,154.9,146.4z"/>
<path class="st70" d="M46.6,397.9c1.7-3.1,2.2-5.8,4.2-7.6c0.7-0.6,1.4-1.6,2.5-0.8c0.9,0.6,0.5,1.5,0.1,2.2
	C52.1,394.3,51,397.3,46.6,397.9z"/>
<path class="st71" d="M64.9,525.2c0.4-3.8,1.5-6.3,3.2-8.6c0.7-0.9,1.5-2.7,3.1-1.6c1.3,0.9,0.1,2.2-0.3,3.1
	C69.8,520.8,67.7,522.8,64.9,525.2z"/>
<path class="st72" d="M65.9,643.3c-4.2,6.5-7.9,12.5-14.6,15.9c-1.4,0.7-3,2-4.6,0.6c-1.6-1.4-1-3.4-0.4-5.1
	C48.3,648.3,58,642.4,65.9,643.3z"/>
<path class="st0" d="M301.6,665.9c-4.2,6.4-7.8,12.3-14.3,15.7c-1.6,0.9-3.5,2-5,0.6c-1.5-1.3-0.7-3.5-0.2-5.2
	C284,670.9,293.6,665.3,301.6,665.9z"/>
<path class="st73" d="M381.9,132.4c0.4-3.6,1.5-6.3,3.3-8.7c0.6-0.8,1.4-2.3,2.7-1.6c1.7,0.9,0.5,2.4,0,3.5
	C386.7,128.1,384.8,130.2,381.9,132.4z"/>
<path class="st3" d="M273,216.6c-0.9-1.8-2.2-3.2-4.1-4.1c-1.2-1.1-2.4-2.2-4-3.6c9.4-5.6,14.3-15.5,22.9-21.3
	c10-4.9,20.2-9.2,31.5-9c10.3,0.1,19.5,3.1,26.3,11.4c4.7,8.2,5.5,17.1,3.8,26c-1.3,7.1-0.2,13.4,2.4,19.8c1.8,4.5,3.5,9,4.8,13.6
	c2.6,9.2,1.9,18-4,26c-13.7,13.7-30.8,16.8-49.3,15.8c-6.4-0.3-12.3-1.7-17.8-5.4c-3.2-2.2-7.1-3.7-10.9-4.8
	c-2.8-0.8-1.3-1.9-0.9-3.1C288,262,287.5,231.7,273,216.6z"/>
<path class="st74" d="M231.1,54.8c0.4-3.2,1.3-5.6,2.8-7.7c0.8-1.2,1.9-3,3.3-2.3c1.7,0.9,0.2,2.7-0.4,3.8
	C235.6,50.9,233.9,52.9,231.1,54.8z"/>
<path class="st75" d="M367.9,525.4c0.3-4.4,1.7-7.1,3.7-9.5c0.4-0.5,1.5-1.2,2-1c1.2,0.4,0.8,1.6,0.5,2.5
	C373.1,520.5,370.7,522.4,367.9,525.4z"/>
<path class="st76" d="M423,318.1c1.9-3.2,2-7.7,6.5-9.3C429.8,313.8,427.1,317.6,423,318.1z"/>
<path class="st73" d="M413.2,423.7c0.6-4.4,1.8-7.4,4.1-9.9c0.6-0.6,1.4-1.2,2.2-0.7c0.7,0.5,0.7,1.5,0.4,2.3
	C418.5,418.5,416.4,420.9,413.2,423.7z"/>
<path class="st0" d="M409.4,613.3c-4,6-7.5,11.9-13.8,15.4c-1.7,0.9-3.7,2.4-5.4,0.7c-1.5-1.5-0.7-3.8,0-5.7
	C392.4,617.8,402.1,612.4,409.4,613.3z"/>
<path class="st0" d="M168.8,291.6c-0.2,3.6,0.2,6.7,2.6,8.7c2.3,2,1.8,3.4,0,5.2c-2.4,2.4-4.9,4.5-8.1,5.7c-1.8,0.7-3.6,0.9-5.2-0.4
	c-1.7-1.4-1.3-3.2-0.8-5.1C159,299.7,162.8,295.3,168.8,291.6z"/>
<path class="st77" d="M175.7,299.6c-3.4-2.2-4.6-4.7-3.5-7.9c0.5-1.5,2.2-1.7,3.3-0.9C178.7,293.5,176.2,296.4,175.7,299.6z"/>
<path class="st78" d="M259.2,317.4c0,3,0.1,5.6,1.8,7.1c5,4.3,1.2,6.8-1.8,9c-3,2.3-6.8,6.1-10.4,2.7c-3.2-3-0.4-7.2,1.5-10.3
	C252.4,322.5,255.1,319.5,259.2,317.4z"/>
<path class="st79" d="M267.5,320.4c-0.6,1.1,0.1,4.2-1.9,4c-2.4-0.2-3.2-3.1-3.3-5.4c-0.1-1.4,0.6-3.3,2.3-3.2
	C266.8,316,267.9,317.7,267.5,320.4z"/>
<path class="st65" d="M229.4,170.8c-2.6,2.3-4.7,5.3-8,6.6c-0.8,0.3-1.7,0.5-2.3-0.3c-0.6-0.8-0.3-1.7,0.5-2.1
	c7.9-4.3,11.5-12.8,17.9-18.6c2.4-2.1,4.8-4.2,7.8-5.3c2.9-1.1,5.9-1.6,8.5,0.6c2.8,2.2,2.5,5.4,1.8,8.3c-0.7,2.8-1.8,5,2.6,2.9
	c1.1-0.5,2.5-1,3,0.4c0.8,1.8-1.1,2.6-2.1,2.5c-6.6-0.3-9.4,5.2-13.6,8.5c-1,0.8-2.2,1.5-3.4,2.1
	C235.6,179.6,231.6,177.9,229.4,170.8z"/>
<path class="st35" d="M165.8,209.5c1.1-0.2,1.6-0.3,2.1-0.3c1.6-0.1,3.7-3,4.5-0.4c0.9,2.7-2.7,3.5-4.3,3.4
	c-3.8-0.2-5.6,1.9-7.7,4.3c-1.8,2.1-4,3.9-6.6,5.2c-7,3.4-10.2,2.3-13.2-5.1c-2.7,2.2-4.7,5.1-8,6.4c-0.9,0.3-1.6,0.4-2.2-0.3
	c-0.6-0.8-0.6-1.6,0.3-2.1c7.9-4.3,11.5-12.7,17.9-18.5c2.2-2,4.5-4,7.3-5.2c3-1.2,6-2.2,9,0.1c3,2.3,2.5,5.5,2,8.7
	C166.6,206.9,166.2,207.9,165.8,209.5z"/>
<path class="st65" d="M328.2,233.6c0.7-0.1,1.5-0.2,2.3-0.4c1.4-0.5,3.3-2.3,4,0.2c0.5,1.9-2.2,2.9-3.4,2.8
	c-5.3-0.7-7.4,3.4-10.5,6.2c-1.5,1.3-3.1,2.5-4.8,3.5c-6.9,3.8-10.6,2.4-13.3-5.1c-2.5,2.4-4.8,5.1-8.1,6.6
	c-0.8,0.4-1.7,0.5-2.2-0.3c-0.5-0.7-0.4-1.7,0.4-2.2c7.9-4.3,11.6-12.7,17.9-18.6c2.5-2.3,5.1-4.3,8.2-5.5c6.9-2.5,11.1,1,10.2,8.3
	C328.7,230.6,327.3,231.8,328.2,233.6z"/>
<path class="st80" d="M244.9,154.6c-0.2,3.5,0,6.4,2.1,8.2c3.2,2.7,1.9,4.6-0.4,6.7c-2.4,2.1-4.8,4.2-7.9,5
	c-4.2,1.1-6.5-1.2-5.4-5.4C235,162.9,238.8,158.4,244.9,154.6z"/>
<path class="st81" d="M251.5,162.7c-2.9-2.2-4.7-4.6-3.2-8.1c0.6-1.4,2.3-1.7,3.3-0.7C254.5,156.7,252.5,159.6,251.5,162.7z"/>
<path class="st0" d="M155.8,200.4c0.2,3.9,1,7.3,3.9,9.6c1.4,1.1,0.9,1.8,0.1,2.8c-2.7,3.2-5.7,6-9.9,7.3c-4,1.2-6.1-0.7-5.4-4.8
	C145.8,208.7,150,204.2,155.8,200.4z"/>
<path class="st82" d="M162.7,208.3c-2.8-2.3-4.8-4.6-3.1-8.1c0.7-1.5,2.3-1.7,3.3-0.6C165.7,202.4,163.8,205.2,162.7,208.3z"/>
<path class="st0" d="M317.9,224.4c-0.3,3.5,0,6.5,2.1,8.2c3.9,3,1.4,4.8-0.7,6.9c-2,2-4.3,3.6-6.9,4.6c-1.8,0.7-3.6,0.9-5.1-0.4
	c-1.6-1.4-1.3-3.1-0.8-5C308.2,232.6,312,228.1,317.9,224.4z"/>
<path class="st83" d="M324.6,232.4c-3.1-2.1-4.7-4.4-3.3-7.8c0.6-1.5,2.3-1.7,3.4-0.8C327.5,226.4,325.7,229.2,324.6,232.4z"/>
</svg>
